# xmcd
#
# Track frame offsets: 
#        150
#        14322
#        35685
#        49007
#        70160
#        121945
#        149436
#        171635
#        187339
#        217449
#        237131
#
# Disc length: 3381 seconds
#
# Revision: 1
# Processed by: cddbd v1.5.2PL0 Copyright (c) Steve Scherf et al.
# Submitted via: ExactAudioCopy v1.0b4
#
DISCID=af0d330b
DTITLE=Little Jimmy King - Jimmy King Live At Monterey
DYEAR=2002
DGENRE=Memphis Blues, Electric Blues, Soul Blues
TTITLE0=Introduction - The Ghetto
TTITLE1=Somebody
TTITLE2=Don't Burn Down the Bridges
TTITLE3=Living in the Danger Zone
TTITLE4=Drowning on Dry Land
TTITLE5=Standing in the Rain
TTITLE6=It Ain't the Same No Mo
TTITLE7=I Wonder Why
TTITLE8=Everybody Wants to Go to Heave
TTITLE9=Wrapped Up in Love Again
TTITLE10=Floodin' in California
EXTD=
EXTT0=
EXTT1=
EXTT2=
EXTT3=
EXTT4=
EXTT5=
EXTT6=
EXTT7=
EXTT8=
EXTT9=
EXTT10=
PLAYORDER=
